<svg xmlns="http://www.w3.org/2000/svg" width="512" height="512" viewBox="0 0 120 120">
  <rect width="120" height="120" rx="27" fill="#1c5b46"/>
  <path d="M30 24 h36 a13 13 0 0 1 13 13 v16 a13 13 0 0 1 -13 13 h-22 l-14 13 3 -13 h-3 a13 13 0 0 1 -13 -13 v-16 a13 13 0 0 1 13 -13 z" fill="#f4efe6"/>
  <text x="48" y="59" font-family="Fraunces, Georgia, 'Times New Roman', serif" font-size="30" font-weight="600" fill="#1c5b46" text-anchor="middle">F</text>
  <path d="M62 60 h32 a12 12 0 0 1 12 12 v12 a12 12 0 0 1 -12 12 h-3 l3 12 -13 -12 h-19 a12 12 0 0 1 -12 -12 v-12 a12 12 0 0 1 12 -12 z" fill="#c2703d"/>
  <circle cx="70" cy="78" r="3.4" fill="#f4efe6"/>
  <circle cx="79" cy="78" r="3.4" fill="#f4efe6"/>
  <circle cx="88" cy="78" r="3.4" fill="#f4efe6"/>
</svg>
